<?xml version="1.0" encoding="utf-8"?>
<!-- Generator: Adobe Illustrator 21.1.0, SVG Export Plug-In . SVG Version: 6.00 Build 0)  -->
<svg version="1.1" id="Слой_1" xmlns="http://www.w3.org/2000/svg" xmlns:xlink="http://www.w3.org/1999/xlink" x="0px" y="0px"
	 viewBox="0 0 100 100" style="enable-background:new 0 0 100 100;" xml:space="preserve">
<g>
	<path d="M34.5,89.2l3.1-10.3h-1.4V53.8h8.8l3.1-10.3H36.2V21.1h18.4c0.1,0,0.1,0,0.2,0l3-10.1c-1.1-0.1-2.2-0.2-3.3-0.2H21.3
		c-1.9,0-3.3,0.4-4.4,1.3c-1.1,1-1.7,2.3-1.7,3.8c0,1.5,0.6,2.8,1.7,3.8c1,0.9,2.5,1.4,4.4,1.4h4.6v57.8h-4.6
		c-1.9,0-3.3,0.4-4.4,1.3c-1.1,1-1.7,2.3-1.7,3.8c0,1.5,0.6,2.7,1.6,3.7c1,1,2.5,1.4,4.4,1.4H34.5z"/>
	<path d="M80.3,54.2L80.3,54.2c-2.1-2.7-5-4.9-8.8-6.8c5.1-4.1,7.6-9.1,7.6-15.1c0-5.8-2.3-10.9-7-15.2c-1.7-1.5-3.5-2.8-5.5-3.7
		l-3,10.1c0.5,0.3,0.9,0.7,1.4,1.1c2.6,2.3,3.8,4.7,3.8,7.3c0,0.2,0,0.5,0,0.7c-0.1,1.6-0.7,3.1-1.7,4.7c-1.2,1.8-2.8,3.2-4.9,4.1
		c-0.2,0.1-0.3,0.1-0.5,0.2c-0.2,0.1-0.4,0.2-0.7,0.3c-0.2,0.1-0.3,0.1-0.5,0.2c-0.2,0.1-0.4,0.2-0.6,0.2c-0.2,0.1-0.4,0.1-0.6,0.2
		c-0.2,0.1-0.4,0.1-0.6,0.2c-0.2,0.1-0.4,0.1-0.7,0.1c-0.1,0-0.1,0-0.2,0l-3.3,10.9c4.5,0.1,8.1,0.7,10.8,1.7
		c2.9,1.1,5.1,2.7,6.6,4.9c1.5,2.1,2.3,4.1,2.3,6.3c0,0.2,0,0.5,0,0.7c-0.1,1.7-0.6,3.3-1.6,4.9c-1.1,1.8-2.7,3.4-4.8,4.7
		c-2.1,1.3-4.6,1.9-7.6,1.9H47.2l-3.1,10.3h16.6c4.5,0,8.7-1.2,12.5-3.4c3.8-2.3,6.7-5.1,8.6-8.3c1.9-3.3,2.8-6.9,2.8-10.9
		C84.7,62.1,83.2,57.9,80.3,54.2z"/>
</g>
</svg>
